<?xml version="1.0" standalone="no"?>
<!DOCTYPE svg PUBLIC "-//W3C//DTD SVG 20010904//EN"
 "http://www.w3.org/TR/2001/REC-SVG-20010904/DTD/svg10.dtd">
<svg version="1.0" xmlns="http://www.w3.org/2000/svg"
 width="446.000000pt" height="422.000000pt" viewBox="0 0 446.000000 422.000000"
 preserveAspectRatio="xMidYMid meet">

<g transform="translate(0.000000,422.000000) scale(0.100000,-0.100000)"
fill="#000000" stroke="none">
<path d="M2010 3971 c-699 -122 -1261 -600 -1478 -1256 -72 -219 -87 -317 -87
-580 1 -210 3 -241 28 -356 36 -170 77 -291 148 -439 69 -142 96 -189 189
-315 372 -506 994 -791 1626 -743 288 22 582 117 830 269 46 29 84 53 84 55 0
3 -31 -11 -68 -30 -95 -48 -256 -102 -371 -126 -590 -119 -1181 55 -1593 472
-231 233 -393 537 -458 860 -144 702 147 1406 741 1795 183 120 384 201 614
249 114 24 153 27 325 27 162 1 215 -3 315 -21 133 -25 319 -84 416 -132 86
-42 47 -12 -73 57 -171 97 -379 172 -578 208 -145 27 -473 30 -610 6z"/>
<path d="M2142 3367 c-52 -30 -73 -114 -42 -173 36 -67 168 -73 212 -10 19 26
26 78 16 112 -15 57 -51 84 -112 84 -28 -1 -61 -6 -74 -13z m128 -37 c60 -60
23 -160 -59 -160 -78 0 -120 96 -66 154 31 33 94 37 125 6z"/>
<path d="M2469 3359 c-32 -12 -51 -51 -40 -81 4 -12 30 -32 62 -47 44 -21 54
-31 54 -51 0 -22 -5 -25 -43 -28 -38 -3 -44 0 -60 27 -9 17 -23 31 -29 31 -24
0 -13 -38 18 -64 41 -35 106 -36 137 -3 41 44 26 75 -56 116 -51 26 -63 48
-37 67 23 17 55 9 74 -17 17 -23 44 -25 39 -3 -3 19 -43 50 -73 57 -11 3 -32
1 -46 -4z"/>
<path d="M1968 3352 c-16 -3 -38 -56 -38 -93 0 -32 -15 -28 -59 15 -33 32 -50
43 -60 37 -11 -7 -2 -22 41 -68 38 -39 60 -72 67 -100 8 -31 16 -41 26 -37 16
6 17 23 6 64 -4 15 2 55 15 105 13 44 22 80 21 80 -1 1 -10 0 -19 -3z"/>
<path d="M2692 3258 c-31 -86 -54 -159 -51 -162 2 -2 35 -13 72 -26 46 -15 72
-19 79 -12 12 12 7 15 -59 36 -29 10 -53 19 -53 20 0 14 24 66 30 66 4 0 27
-7 50 -15 52 -18 50 -18 50 -1 0 8 -19 21 -42 28 -44 15 -58 38 -38 68 8 13
15 13 58 -3 59 -20 72 -21 72 -4 0 10 -117 57 -142 57 -4 0 -15 -24 -26 -52z"/>
<path d="M1688 3269 c-9 -5 -24 -33 -33 -62 -24 -71 -30 -75 -49 -27 -12 31
-21 40 -32 36 -9 -3 -17 -6 -19 -6 -3 0 84 -200 90 -208 1 -1 9 0 18 4 15 5
15 9 1 42 -8 20 -12 47 -9 60 6 23 6 23 54 -12 45 -33 91 -47 91 -28 0 4 -27
27 -60 50 -33 24 -60 49 -60 56 0 7 7 33 15 56 17 49 17 52 -7 39z"/>
<path d="M2897 3125 c-52 -106 -53 -110 -32 -119 22 -8 123 193 103 205 -7 5
-15 9 -18 9 -3 0 -27 -43 -53 -95z"/>
<path d="M1443 1292 c-29 -21 -52 -41 -53 -46 0 -5 7 -3 15 4 20 17 77 -23 68
-48 -4 -11 -3 -14 4 -7 13 13 34 118 25 127 -4 3 -30 -10 -59 -30z m40 -37
c-8 -13 -11 -13 -28 -1 -19 14 -19 15 5 34 24 20 25 20 28 2 2 -11 -1 -26 -5
-35z"/>
<path d="M3008 1314 c-16 -8 -28 -18 -28 -22 0 -4 15 -31 33 -60 l33 -52 39
33 c32 28 37 37 32 59 -14 56 -56 72 -109 42z m88 -19 c19 -29 12 -58 -21 -79
-24 -16 -25 -15 -55 28 l-30 45 22 15 c33 23 65 20 84 -9z"/>
<path d="M1566 1228 c-9 -12 -16 -34 -16 -49 0 -47 61 -81 96 -53 18 15 18 15
-3 5 -31 -15 -71 2 -79 34 -16 65 69 105 100 48 8 -16 15 -23 16 -18 1 27 -32
55 -65 55 -24 0 -39 -7 -49 -22z"/>
<path d="M2880 1186 c0 -39 5 -68 12 -72 8 -5 9 -2 5 9 -9 24 48 54 69 36 8
-6 17 -10 19 -7 3 3 -19 26 -50 52 l-55 48 0 -66z m44 -13 c-28 -20 -34 -16
-34 24 l0 36 26 -24 c23 -22 24 -24 8 -36z"/>
<path d="M1741 1164 c-26 -33 -27 -76 -3 -97 24 -22 76 -22 93 1 11 14 11 15
-1 5 -8 -7 -29 -13 -47 -13 -39 0 -60 32 -49 74 12 50 78 58 96 13 7 -17 9
-18 9 -5 1 19 -35 48 -60 48 -10 0 -27 -12 -38 -26z"/>
<path d="M2700 1171 c-13 -9 -12 -17 4 -65 16 -45 23 -56 40 -55 16 1 17 2 4
6 -23 6 -53 94 -36 105 26 17 72 4 87 -24 15 -25 14 -29 -9 -54 -15 -16 -19
-25 -10 -22 8 3 22 17 30 31 13 24 13 30 0 55 -12 21 -24 28 -55 30 -22 1 -47
-2 -55 -7z"/>
<path d="M2626 1125 c10 -55 27 -110 31 -99 2 5 -6 37 -17 70 -11 32 -17 46
-14 29z"/>
<path d="M1901 1083 c-15 -74 -15 -73 12 -72 16 1 18 2 5 6 -31 8 -18 52 16
54 16 1 17 2 4 6 -11 3 -18 14 -18 28 0 14 7 25 18 28 13 4 13 5 -4 6 -18 1
-23 -8 -33 -56z"/>
<path d="M1968 1123 c7 -3 16 -2 19 1 4 3 -2 6 -13 5 -11 0 -14 -3 -6 -6z"/>
<path d="M2062 1108 c-23 -23 -13 -48 23 -64 47 -19 49 -54 4 -54 -22 0 -32 5
-36 20 -3 11 -10 20 -15 20 -6 0 -4 -10 4 -22 20 -30 73 -36 87 -11 12 24 4
36 -36 57 -35 18 -43 40 -17 50 21 8 20 8 38 -10 9 -8 16 -11 16 -5 0 10 -31
31 -47 31 -5 0 -14 -5 -21 -12z"/>
<path d="M2495 1098 c3 -12 9 -41 13 -63 7 -37 10 -40 37 -37 17 2 33 7 37 11
5 4 -7 5 -26 3 -34 -4 -34 -4 -41 47 -4 28 -11 54 -16 57 -6 3 -7 -4 -4 -18z"/>
<path d="M2426 1055 c4 -33 10 -64 14 -68 10 -11 0 94 -11 113 -5 9 -6 -9 -3
-45z"/>
<path d="M2195 1047 c-4 -31 -5 -62 -3 -69 3 -7 8 15 13 50 4 35 5 66 2 68 -3
3 -8 -19 -12 -49z"/>
<path d="M2270 1035 l0 -65 31 0 c17 0 39 5 50 10 21 12 26 45 8 56 -7 4 -8 9
0 17 21 21 -7 47 -49 47 l-40 0 0 -65z m80 36 c0 -20 -18 -31 -51 -31 -14 0
-19 7 -19 25 0 22 4 25 35 25 28 0 35 -4 35 -19z m10 -60 c0 -21 -19 -31 -56
-31 -19 0 -24 5 -24 25 0 23 4 25 40 25 33 0 40 -4 40 -19z"/>
<path d="M1948 1003 c7 -3 16 -2 19 1 4 3 -2 6 -13 5 -11 0 -14 -3 -6 -6z"/>
</g>
</svg>
